<svg 
width="28" 
height="24" viewBox="0 0 28 24" fill="none" xmlns="http://www.w3.org/2000/svg">
<path d="M0 2C0 1.41667 0.1875 0.9375 0.5625 0.5625C0.9375 0.1875 1.41667 0 2 0H26C26.5833 0 27.0625 0.1875 27.4375 0.5625C27.8125 0.9375 28 1.41667 28 2C28 2.58333 27.8125 3.0625 27.4375 3.4375C27.0625 3.8125 26.5833 4 26 4H2C1.41667 4 0.9375 3.8125 0.5625 3.4375C0.1875 3.0625 0 2.58333 0 2ZM0 12C0 11.4167 0.1875 10.9375 0.5625 10.5625C0.9375 10.1875 1.41667 10 2 10H26C26.5833 10 27.0625 10.1875 27.4375 10.5625C27.8125 10.9375 28 11.4167 28 12C28 12.5833 27.8125 13.0625 27.4375 13.4375C27.0625 13.8125 26.5833 14 26 14H2C1.41667 14 0.9375 13.8125 0.5625 13.4375C0.1875 13.0625 0 12.5833 0 12ZM26 24H2C1.41667 24 0.9375 23.8125 0.5625 23.4375C0.1875 23.0625 0 22.5833 0 22C0 21.4167 0.1875 20.9375 0.5625 20.5625C0.9375 20.1875 1.41667 20 2 20H26C26.5833 20 27.0625 20.1875 27.4375 20.5625C27.8125 20.9375 28 21.4167 28 22C28 22.5833 27.8125 23.0625 27.4375 23.4375C27.0625 23.8125 26.5833 24 26 24Z" fill="#FF6400"/>
</svg>
