<svg width="57" height="52" viewBox="0 0 57 52" fill="none" xmlns="http://www.w3.org/2000/svg">
<path d="M55.2312 36.066C41.6662 12.5782 35.3857 0.717579 34.1016 2.0017C32.8871 1.2627 31.5352 0.777869 30.1279 0.576564C28.7205 0.375258 27.287 0.461668 25.914 0.83056C24.541 1.19945 23.2572 1.84315 22.1402 2.72269C21.0233 3.60222 20.0965 4.69929 19.4159 5.94746C17.6414 8.98267 25.7898 -5.11935 2.11522 35.9026C1.12515 37.5398 0.604193 39.4176 0.60929 41.3309C0.60929 52.0592 14.8747 55.8298 20.2097 46.5841C21.0385 45.1366 17.2212 51.7673 28.6265 31.9918L37.0317 46.5841C38.4249 48.9975 40.7199 50.7586 43.4116 51.48C46.1033 52.2014 48.9713 51.8239 51.3847 50.4307C53.7981 49.0374 55.5592 46.7425 56.2806 44.0508C57.0019 41.3591 56.6245 38.4911 55.2312 36.0777V36.066ZM11.1158 49.5026C9.68055 49.5042 8.27023 49.1278 7.02671 48.4112C5.78318 47.6947 4.75031 46.6632 4.03201 45.4207C3.31371 44.1782 2.93533 42.7684 2.93493 41.3332C2.93453 39.898 3.31212 38.488 4.02973 37.2451C4.0598 37.196 4.08708 37.1454 4.11145 37.0933C9.02614 28.98 21.7973 34.5017 18.8672 43.7941C18.3458 45.4436 17.3143 46.8851 15.9213 47.9109C14.5283 48.9368 12.8457 49.4941 11.1158 49.5026ZM21.4938 39.6966C21.2501 38.1493 20.6635 36.6762 19.7769 35.3849C18.8904 34.0936 17.7263 33.0169 16.37 32.2335C15.0136 31.4501 13.4993 30.9799 11.9378 30.8573C10.3763 30.7347 8.8071 30.9628 7.3451 31.5249L18.2485 12.6366C18.6804 15.3683 19.4976 16.2088 27.2724 29.6921L21.4938 39.6966ZM46.1373 49.5026C44.7033 49.5022 43.2947 49.1244 42.0529 48.4072C40.8111 47.69 39.78 46.6586 39.063 45.4168C19.7311 11.9361 20.4548 13.9207 20.4548 10.9789C20.4557 9.5574 20.8274 8.16072 21.5332 6.92681C22.2389 5.69289 23.2544 4.66442 24.4792 3.94297C25.704 3.22152 27.0958 2.83205 28.5172 2.81303C29.9385 2.79401 31.3403 3.14609 32.584 3.8345C35.0588 4.93184 34.6853 5.14197 53.1416 37.0933C53.894 38.3338 54.3025 39.7523 54.3252 41.203C54.348 42.6536 53.984 44.0842 53.2709 45.3477C52.5577 46.6111 51.521 47.662 50.2674 48.3922C49.0137 49.1224 47.5882 49.5057 46.1373 49.5026Z" fill="#FF6400"/>
</svg>
