<svg width="21" height="22" viewBox="0 0 21 22" fill="none" xmlns="http://www.w3.org/2000/svg">
<path d="M0.75 5.75C0.75 14.034 7.466 20.75 15.75 20.75H18C18.5967 20.75 19.169 20.5129 19.591 20.091C20.0129 19.669 20.25 19.0967 20.25 18.5V17.128C20.25 16.612 19.899 16.162 19.398 16.037L14.975 14.931C14.535 14.821 14.073 14.986 13.802 15.348L12.832 16.641C12.55 17.017 12.063 17.183 11.622 17.021C9.98488 16.4191 8.49815 15.4686 7.26478 14.2352C6.03141 13.0018 5.08087 11.5151 4.479 9.878C4.317 9.437 4.483 8.95 4.859 8.668L6.152 7.698C6.515 7.427 6.679 6.964 6.569 6.525L5.463 2.102C5.40214 1.85869 5.26172 1.6427 5.06405 1.48834C4.86638 1.33397 4.6228 1.25008 4.372 1.25H3C2.40326 1.25 1.83097 1.48705 1.40901 1.90901C0.987053 2.33097 0.75 2.90326 0.75 3.5V5.75Z" stroke="white" stroke-width="1.5" stroke-linecap="round" stroke-linejoin="round"/>
</svg>
