<svg width="54" height="49" viewBox="0 0 54 49" fill="none" xmlns="http://www.w3.org/2000/svg">
<path d="M22.8561 19.8605C29.1004 19.9446 33.9203 13.7886 32.3644 7.75181C29.7641 -2.38781 15.3466 -2.04547 13.2549 8.21234C12.0187 14.1459 16.7956 19.9288 22.8561 19.8605ZM18.1754 3.54222C21.5927 0.975139 26.8459 1.81566 29.3176 5.29154C28.47 5.0105 27.0613 3.87317 26.3013 4.73295C24.6719 6.9253 21.133 6.95594 19.4642 4.79949C19.2436 4.5307 18.8181 4.4125 18.5011 4.52457C17.6886 4.79949 16.9392 5.1751 16.1924 5.5796C16.7271 4.78777 17.399 4.09781 18.1763 3.54222H18.1754ZM14.9211 8.82259C15.9209 7.74568 17.1695 6.9288 18.5335 6.37984C20.824 8.77006 25.0204 8.73241 27.2609 6.29229C28.5418 6.7712 29.7299 7.48652 30.7228 8.42685C31.8041 13.329 27.8834 18.1681 22.8561 18.1094C17.982 18.1558 14.1094 13.6249 14.9211 8.82259Z" fill="#FF6400"/>
<path d="M30.1318 21.1681C28.8089 20.6726 27.4176 20.4213 25.9975 20.4213H25.3759C25.1645 20.4214 24.9604 20.498 24.8011 20.6369C24.6417 20.7757 24.538 20.9676 24.5091 21.1769C24.4615 21.498 24.3 21.7912 24.054 22.0029C23.8081 22.2146 23.4941 22.3308 23.1695 22.33H22.5391C22.2146 22.3308 21.9006 22.2146 21.6546 22.0029C21.4086 21.7912 21.2471 21.498 21.1996 21.1769C21.1706 20.9676 21.0669 20.7757 20.9076 20.6369C20.7483 20.498 20.5441 20.4214 20.3328 20.4213C13.7776 20.0133 7.86947 25.5809 7.97016 32.1623V34.4299H7.09462C6.86241 34.4299 6.63971 34.3377 6.47552 34.1735C6.31132 34.0093 6.21908 33.7866 6.21908 33.5544V11.6659C6.21908 11.1835 6.61132 10.7904 7.09462 10.7904H11.3235C12.4774 10.7746 12.4704 9.05507 11.3235 9.03931H7.09462C5.64648 9.03931 4.468 10.2178 4.468 11.6659V33.5544C4.468 35.0025 5.64648 36.181 7.09462 36.181H43.8672C45.3154 36.181 46.4939 35.0025 46.4939 33.5544V21.2968C46.465 20.1429 44.7682 20.1455 44.7428 21.2968V33.5544C44.7428 33.7866 44.6505 34.0093 44.4864 34.1735C44.3222 34.3377 44.0995 34.4299 43.8672 34.4299H37.7385V32.1623C37.7385 27.303 34.682 22.8851 30.1318 21.1681ZM21.9788 34.4299H9.72124V32.1623C9.72124 28.38 11.8952 24.9242 15.2266 23.2476C15.9761 26.3548 18.7927 28.8291 21.9788 29.125V34.4299ZM18.5204 25.636C17.6915 24.7992 17.1176 23.7441 16.8656 22.5935C17.7744 22.3177 18.7218 22.182 19.6717 22.1724C20.6637 24.7579 25.0475 24.757 26.0369 22.1724C26.9877 22.182 27.9368 22.3177 28.8474 22.5909C27.9631 27.2488 21.8352 29.0681 18.5204 25.636ZM35.9874 34.4299H23.7299V29.1242C25.3228 28.9538 26.825 28.2982 28.0332 27.2463C29.2415 26.1943 30.0975 24.7966 30.4855 23.2423C33.8126 24.9268 35.9874 28.3852 35.9874 32.1623V34.4299Z" fill="#FF6400"/>
<path d="M6.21908 39.6832H20.2277V42.3099C15.8999 41.9815 15.456 48.2241 19.7899 48.4386H31.1719C31.9818 48.4386 32.7724 48.1121 33.3398 47.5438C35.406 45.439 33.6445 41.9947 30.7342 42.3099V39.6832H44.7428C47.6399 39.6832 49.996 37.3272 49.996 34.43V21.2444C49.9654 20.0887 48.2712 20.0939 48.2449 21.2444V34.43C48.2449 36.3615 46.6742 37.9322 44.7428 37.9322H6.21908C4.28764 37.9322 2.71692 36.3615 2.71692 34.43V10.7905C2.71692 8.85903 4.28764 7.28831 6.21908 7.28831H11.9188C13.0684 7.2743 13.0684 5.55299 11.9188 5.53723H6.21908C3.32192 5.53723 0.965847 7.89331 0.965847 10.7905V34.43C0.965847 37.3272 3.32192 39.6832 6.21908 39.6832ZM21.9788 39.6832H28.9831V42.3099C28.9831 43.2756 28.1977 44.0609 27.232 44.0609H23.7299C22.7641 44.0609 21.9788 43.2756 21.9788 42.3099V39.6832ZM23.7299 45.812H27.232C28.5226 45.812 29.6397 45.1028 30.2474 44.0609H31.1719C32.8967 44.0898 32.8985 46.6613 31.1719 46.6876H19.7899C18.0677 46.6578 18.0607 44.0916 19.7899 44.0609H20.7145C21.3221 45.1028 22.4393 45.812 23.7299 45.812Z" fill="#FF6400"/>
<path d="M48.2449 0.283936H38.614C35.7169 0.283936 33.3608 2.64001 33.3608 5.53717V14.2926C33.3626 15.5851 33.8401 16.8318 34.7022 17.7949C35.5644 18.7579 36.7508 19.37 38.0353 19.5143C37.6714 20.3003 37.0972 20.9702 36.3761 21.4501C36.226 21.5502 36.1106 21.6944 36.0457 21.8627C35.9808 22.0311 35.9696 22.2154 36.0137 22.3904C36.166 23.0663 36.9128 23.0978 37.4811 23.0838C40.0184 23.0873 42.5067 21.7504 43.8025 19.5458H48.2449C51.1421 19.5458 53.4982 17.1897 53.4982 14.2926V5.53717C53.4982 2.64001 51.1421 0.283936 48.2449 0.283936ZM51.7471 14.2926C51.7471 16.224 50.1764 17.7947 48.2449 17.7947H43.2885C43.1274 17.7946 42.9693 17.839 42.8318 17.9231C42.6943 18.0071 42.5827 18.1275 42.5093 18.271C42.1726 18.9426 41.702 19.5381 41.1265 20.021C40.551 20.5039 39.8828 20.8639 39.163 21.0789C39.887 19.9013 41.0182 17.5312 38.614 17.7947C36.6826 17.7947 35.1119 16.224 35.1119 14.2926V5.53717C35.1119 3.60573 36.6826 2.03501 38.614 2.03501H48.2449C50.1764 2.03501 51.7471 3.60573 51.7471 5.53717V14.2926Z" fill="#FF6400"/>
<path d="M48.2449 7.28833H38.614C37.4661 7.30672 37.4609 9.02015 38.614 9.03941H48.2449C49.3927 9.02102 49.398 7.30759 48.2449 7.28833ZM46.4938 12.5416H40.365C39.2163 12.5599 39.2128 14.2734 40.365 14.2926H46.4938C47.6425 14.2734 47.646 12.5608 46.4938 12.5416Z" fill="#FF6400"/>
</svg>
