<svg width="50" height="45" viewBox="0 0 50 45" fill="none" xmlns="http://www.w3.org/2000/svg">
<path d="M15.887 31.2614H10.0504C8.82403 31.2709 7.60789 31.0376 6.47212 30.5749C5.33635 30.1121 4.3034 29.4292 3.43283 28.5653C2.56227 27.7015 1.8713 26.6739 1.39977 25.5418C0.928248 24.4096 0.685486 23.1953 0.685486 21.9689C0.685486 20.7425 0.928248 19.5282 1.39977 18.3961C1.8713 17.2639 2.56227 16.2363 3.43283 15.3725C4.3034 14.5086 5.33635 13.8257 6.47212 13.363C7.60789 12.9002 8.82403 12.6669 10.0504 12.6764H15.887C16.1842 12.6764 16.4692 12.7945 16.6794 13.0047C16.8896 13.2148 17.0076 13.4999 17.0076 13.7971V30.1407C17.0076 30.4379 16.8896 30.723 16.6794 30.9331C16.4692 31.1433 16.1842 31.2614 15.887 31.2614ZM10.0504 14.9178C9.11915 14.9095 8.19548 15.0858 7.33272 15.4364C6.46995 15.787 5.68519 16.3051 5.02374 16.9607C4.36229 17.6162 3.83726 18.3963 3.47895 19.2559C3.12065 20.1156 2.93617 21.0376 2.93617 21.9689C2.93617 22.9002 3.12065 23.8223 3.47895 24.6819C3.83726 25.5415 4.36229 26.3216 5.02374 26.9772C5.68519 27.6327 6.46995 28.1508 7.33272 28.5014C8.19548 28.8521 9.11915 29.0283 10.0504 29.02H14.7663V14.9178H10.0504Z" fill="#FF6400"/>
<path d="M30.553 44.1961C30.28 44.1961 30.0164 44.0965 29.8117 43.9159L15.1491 30.9814L16.6323 29.3004L29.4323 40.5919V3.93529L16.6094 14.6575L15.1721 12.9372L29.8341 0.679685C29.9976 0.542914 30.1968 0.455635 30.4082 0.428092C30.6196 0.40055 30.8345 0.433887 31.0277 0.52419C31.2208 0.614492 31.3842 0.758014 31.4986 0.937909C31.613 1.1178 31.6738 1.32661 31.6737 1.53981V43.0754C31.6737 43.3726 31.5556 43.6576 31.3454 43.8678C31.1353 44.078 30.8502 44.1961 30.553 44.1961ZM44.2882 34.3413L42.7035 32.7566C45.5596 29.8933 47.1635 26.0142 47.1635 21.97C47.1635 17.9258 45.5596 14.0466 42.7035 11.1833L44.2882 9.59477C47.5653 12.8784 49.4058 17.328 49.4058 21.9672C49.4058 26.6063 47.5653 31.056 44.2882 34.3396V34.3413Z" fill="#FF6400"/>
<path d="M41.4356 31.4936L39.8493 29.9089C41.9519 27.8015 43.1327 24.9461 43.1327 21.9691C43.1327 18.9922 41.9519 16.1368 39.8493 14.0293L41.434 12.4441C43.9566 14.972 45.3735 18.3972 45.3738 21.9685C45.3741 25.5397 43.9578 28.9653 41.4356 31.4936Z" fill="#FF6400"/>
<path d="M38.5887 28.6462L37.0041 27.0616C38.3516 25.7098 39.1083 23.8789 39.1082 21.9701C39.1081 20.0614 38.3512 18.2306 37.0035 16.879L38.5882 15.2943C40.3557 17.0665 41.3483 19.4672 41.3484 21.9701C41.3485 24.4731 40.3561 26.8739 38.5887 28.6462Z" fill="#FF6400"/>
<path d="M35.7432 25.7986L34.158 24.214C34.4529 23.9192 34.6868 23.5692 34.8464 23.184C35.006 22.7988 35.0881 22.3859 35.0881 21.969C35.0881 21.552 35.006 21.1391 34.8464 20.7539C34.6868 20.3687 34.4529 20.0187 34.158 19.7239L35.7432 18.1393C36.2462 18.6422 36.6451 19.2392 36.9173 19.8963C37.1895 20.5534 37.3296 21.2577 37.3296 21.969C37.3296 22.6802 37.1895 23.3845 36.9173 24.0416C36.6451 24.6987 36.2462 25.2957 35.7432 25.7986Z" fill="#FF6400"/>
</svg>
