<svg width="128" height="37" viewBox="0 0 128 37" fill="none" xmlns="http://www.w3.org/2000/svg">
<path d="M118.524 32.6361C118.524 33.4707 117.615 33.8871 115.798 33.8871C114.165 33.8871 113.347 33.4875 113.347 32.6858V4.09158C113.347 3.29058 114.165 2.89008 115.798 2.89008C117.615 2.89008 118.524 3.29058 118.524 4.09158V32.6361ZM115.87 0.335388C108.524 0.335388 104.854 1.72151 104.854 4.4925V32.4851C104.854 35.2567 108.524 36.6414 115.87 36.6414C123.302 36.6414 127.018 35.2567 127.018 32.4851V4.4925C127.018 1.72151 123.302 0.335388 115.87 0.335388Z" fill="#FF6400"/>
<path d="M98.4782 5.18291C95.9029 5.18021 95.3382 6.30071 95.3382 7.67978V13.9312H93.3427V3.21043C93.3427 1.43769 92.3362 -1.90735e-05 89.3053 -1.90735e-05C86.1317 -1.90735e-05 85.2717 1.43769 85.2717 3.21043V10.3366H83.05V5.73197C83.05 4.35268 82.5405 3.12175 79.9089 3.23509C77.6301 3.19924 76.769 4.35268 76.769 5.73197V12.8335C76.769 14.2128 77.5037 15.33 79.2386 15.33H79.9089H85.2717V36.6416H93.3427V18.9243H98.4782C100.213 18.9243 101.62 17.8067 101.62 16.4281V7.67978C101.62 6.30071 101.033 5.18519 98.4782 5.18291Z" fill="white"/>
<path d="M62.3152 0.435711C54.971 0.435711 51.2998 1.82141 51.2998 4.592V32.4851C51.2998 35.2565 54.971 36.6416 62.3152 36.6416C69.6586 36.6416 73.3316 35.2565 73.3316 32.4851V21.0922H64.8379V32.5854C64.8379 33.4537 63.9724 33.8874 62.2472 33.8874C60.6108 33.8874 59.7943 33.4537 59.7943 32.5854V4.29177C59.7943 3.45741 60.6108 3.04033 62.2472 3.04033C63.9724 3.04033 64.8379 3.45741 64.8379 4.29177V13.0622H73.3316V4.592C73.3316 1.82141 69.6586 0.435711 62.3152 0.435711Z" fill="#FF6400"/>
<path d="M39.3928 32.1034C39.3928 32.7372 38.4841 33.9874 36.6721 33.9874C34.8575 33.9874 33.9511 33.6706 33.9511 33.036V20.2669C33.9511 19.7327 34.5544 19.2487 35.7662 18.8143C36.1097 18.7138 37.3187 18.414 39.3928 17.913V32.1034ZM36.6051 0.585846C29.6145 0.585846 26.1211 1.70531 26.1211 3.94175V13.0126H33.9511V3.64008C33.9511 3.00648 34.8575 2.68844 36.6721 2.68844C38.4841 2.68844 39.3928 3.00648 39.3928 3.64008V14.007C39.3928 15.2087 37.1803 16.3439 32.757 17.412C28.3305 18.4811 26.1211 19.4657 26.1211 20.3661V33.3863C26.1211 34.1873 26.7737 35.1383 28.2151 35.7398C29.6562 36.3405 31.4584 36.6411 33.6188 36.6411C36.1279 36.6411 38.2391 36.5417 39.6237 35.5403C39.6772 36.3771 39.6068 36.3409 39.6068 36.6411H47.6215V35.1893V3.94175C47.6215 1.70531 43.9488 0.585846 36.6051 0.585846Z" fill="#FF6400"/>
<path d="M11.4359 0.435711C4.09062 0.435711 0.419434 1.82141 0.419434 4.592V32.4851C0.419434 35.2565 4.09062 36.6416 11.4359 36.6416C18.7777 36.6416 22.4505 35.2565 22.4505 32.4851V21.0922H13.9573V32.5854C13.9573 33.4537 13.0926 33.8874 11.3673 33.8874C9.73097 33.8874 8.91422 33.4537 8.91422 32.5854V4.29177C8.91422 3.45741 9.73097 3.04033 11.3673 3.04033C13.0926 3.04033 13.9573 3.45741 13.9573 4.29177V13.0622H22.4505V4.592C22.4505 1.82141 18.7777 0.435711 11.4359 0.435711Z" fill="#FF6400"/>
</svg>
