<svg width="48" height="48" viewBox="0 0 48 48" fill="none" xmlns="http://www.w3.org/2000/svg">
<path d="M37.2534 33.6564V43.6236C37.2534 44.7846 36.7922 45.8981 35.9712 46.7191C35.1502 47.54 34.0367 48.0013 32.8757 48.0013H11.8628C11.7269 48.0013 11.5928 47.9696 11.4712 47.9088C11.3497 47.848 11.2439 47.7598 11.1623 47.651L0.655882 33.6424C0.542217 33.4909 0.480774 33.3065 0.480774 33.1171V5.09986C0.480774 3.93883 0.941994 2.82534 1.76297 2.00436C2.58395 1.18339 3.69743 0.722168 4.85847 0.722168H32.8757C34.0367 0.722168 35.1502 1.18339 35.9712 2.00436C36.7922 2.82534 37.2534 3.93883 37.2534 5.09986V21.2746L40.7993 17.7269C41.2921 17.2349 41.96 16.9586 42.6564 16.9586C43.3527 16.9586 44.0206 17.2349 44.5134 17.7269L46.9911 20.2047C47.4831 20.6974 47.7595 21.3653 47.7595 22.0617C47.7595 22.758 47.4831 23.4259 46.9911 23.9187L37.2534 33.6564ZM35.5041 23.0221L35.5023 22.9644V5.09986C35.5009 4.40367 35.2238 3.73638 34.7315 3.2441C34.2392 2.75181 33.5719 2.47463 32.8757 2.47325H4.85847C4.16227 2.47463 3.49499 2.75181 3.0027 3.2441C2.51042 3.73638 2.23324 4.40367 2.23185 5.09986V32.2416H8.36062C9.52166 32.2416 10.6351 32.7028 11.4561 33.5238C12.2771 34.3447 12.7383 35.4582 12.7383 36.6193V46.2502H32.8757C33.5723 46.2502 34.2404 45.9734 34.733 45.4809C35.2256 44.9883 35.5023 44.3202 35.5023 43.6236V35.4075L29.6555 41.2526C29.5336 41.3749 29.3782 41.4584 29.209 41.4925L23.0171 42.7305C22.8758 42.7596 22.7294 42.753 22.5912 42.7116C22.4529 42.6701 22.3271 42.595 22.2251 42.4929C22.123 42.3909 22.0479 42.2651 22.0065 42.1269C21.965 41.9886 21.9585 41.8423 21.9875 41.7009L23.2255 35.5091C23.2596 35.3398 23.3431 35.1844 23.4654 35.0625L35.5041 23.0221ZM10.9872 44.4991V36.6193C10.9859 35.9231 10.7087 35.2558 10.2164 34.7635C9.7241 34.2712 9.05682 33.994 8.36062 33.9926H3.10739L10.9872 44.4991ZM23.961 40.7571L27.26 40.0969L24.6211 37.458L23.961 40.7571ZM25.3216 35.6807L29.0373 39.3965L42.6572 25.7766L38.9414 22.0608L25.3216 35.6807ZM27.6225 23.4862H10.1117C9.87949 23.4862 9.6568 23.5784 9.4926 23.7426C9.32841 23.9068 9.23616 24.1295 9.23616 24.3617C9.23616 24.5939 9.32841 24.8166 9.4926 24.9808C9.6568 25.145 9.87949 25.2373 10.1117 25.2373H27.6225C27.8547 25.2373 28.0774 25.145 28.2416 24.9808C28.4058 24.8166 28.498 24.5939 28.498 24.3617C28.498 24.1295 28.4058 23.9068 28.2416 23.7426C28.0774 23.5784 27.8547 23.4862 27.6225 23.4862ZM43.8952 24.5386L45.7531 22.6807C45.9173 22.5165 46.0095 22.2938 46.0095 22.0617C46.0095 21.8295 45.9173 21.6069 45.7531 21.4427L43.2754 18.9666C43.1942 18.8852 43.0977 18.8205 42.9915 18.7764C42.8853 18.7323 42.7714 18.7096 42.6564 18.7096C42.5413 18.7096 42.4274 18.7323 42.3212 18.7764C42.215 18.8205 42.1185 18.8852 42.0373 18.9666L40.1812 20.8228L43.8952 24.5386ZM27.6225 16.4819H10.1117C9.87949 16.4819 9.6568 16.5741 9.4926 16.7383C9.32841 16.9025 9.23616 17.1252 9.23616 17.3574C9.23616 17.5896 9.32841 17.8123 9.4926 17.9765C9.6568 18.1407 9.87949 18.2329 10.1117 18.2329H27.6225C27.8547 18.2329 28.0774 18.1407 28.2416 17.9765C28.4058 17.8123 28.498 17.5896 28.498 17.3574C28.498 17.1252 28.4058 16.9025 28.2416 16.7383C28.0774 16.5741 27.8547 16.4819 27.6225 16.4819ZM22.3692 9.47756H10.1117C9.87949 9.47756 9.6568 9.5698 9.4926 9.734C9.32841 9.89819 9.23616 10.1209 9.23616 10.3531C9.23616 10.5853 9.32841 10.808 9.4926 10.9722C9.6568 11.1364 9.87949 11.2286 10.1117 11.2286H22.3692C22.6014 11.2286 22.8241 11.1364 22.9883 10.9722C23.1525 10.808 23.2448 10.5853 23.2448 10.3531C23.2448 10.1209 23.1525 9.89819 22.9883 9.734C22.8241 9.5698 22.6014 9.47756 22.3692 9.47756Z" fill="#FF6400"/>
</svg>
