<svg width="39" height="40" viewBox="0 0 39 40" fill="none" xmlns="http://www.w3.org/2000/svg">
<path fill-rule="evenodd" clip-rule="evenodd" d="M1.76135 12.6384L4.87442 9.52488C5.30852 9.09072 5.8522 8.88716 6.46461 8.92933C7.07703 8.97151 7.58768 9.24792 7.95809 9.73743L12.5679 15.8305C13.1893 16.6518 13.111 17.7884 12.3827 18.5167L10.2252 20.6745C13.5452 23.4972 16.3211 26.2744 19.1433 29.5943L21.3013 27.436C22.0296 26.7076 23.166 26.6294 23.9872 27.2509L30.0794 31.8613C30.5689 32.2317 30.8452 32.7424 30.8874 33.3549C30.9296 33.9674 30.726 34.5112 30.2919 34.9453L27.1783 38.0593C20.0089 45.2298 -5.40829 19.809 1.76135 12.6384ZM28.3537 1.3208C33.9572 1.3208 38.4997 5.56751 38.4997 10.8062C38.4997 16.0448 33.9572 20.2915 28.3537 20.2915C26.4295 20.2915 24.6305 19.7907 23.0975 18.921C21.8492 19.4736 20.5098 19.6333 19.228 19.4438C19.708 18.5352 20.0656 17.567 20.2915 16.5645C18.9847 14.9678 18.2077 12.9719 18.2077 10.8062C18.2077 5.56751 22.7502 1.3208 28.3537 1.3208Z" stroke="white" stroke-miterlimit="22.9256" stroke-linecap="round" stroke-linejoin="round"/>
<path d="M28.3308 15.3755V9.75469H27.0506M26.9907 15.4326H29.671M28.3308 6.05078V6.07979" stroke="white" stroke-miterlimit="22.9256" stroke-linecap="round" stroke-linejoin="round"/>
</svg>
