<svg width="59" height="60" viewBox="0 0 59 60" fill="none" xmlns="http://www.w3.org/2000/svg">
<rect opacity="0.1" x="0.389648" y="0.80426" width="58.5532" height="58.5532" rx="29.2766" fill="url(#paint0_linear_698_1970)"/>
<g clip-path="url(#clip0_698_1970)">
<path d="M35.2898 19.2585C36.8036 21.2438 37.7039 23.7195 37.7039 26.402C37.7039 32.7288 32.697 37.9089 26.4336 38.1986C28.389 39.8668 30.8415 40.7743 33.4557 40.7743C34.5944 40.7743 35.7173 40.5987 36.7914 40.2522C36.9658 40.1961 37.1568 40.2419 37.2861 40.3712L40.0875 43.1689V38.7512C40.0875 38.6036 40.1539 38.4639 40.2692 38.3712C42.8346 36.3017 44.3057 33.2283 44.3057 29.9383C44.3057 24.6124 40.4321 20.1331 35.2898 19.2585Z" fill="white"/>
<path d="M25.8779 15.5656C19.8951 15.5656 15.0278 20.4267 15.0278 26.4016C15.0278 29.6903 16.499 32.7631 19.065 34.8332C19.1216 34.879 19.1674 34.9369 19.1988 35.0026C19.2303 35.0684 19.2466 35.1403 19.2467 35.2132V39.6309L22.0481 36.8332C22.1116 36.7696 22.1914 36.7249 22.2787 36.7039C22.366 36.6829 22.4574 36.6865 22.5428 36.7142C23.6175 37.0607 24.7397 37.2363 25.8785 37.2363C31.8607 37.2363 36.7273 32.3764 36.7273 26.4022C36.7267 20.4267 31.86 15.5656 25.8779 15.5656Z" fill="white"/>
<path d="M29.409 29.5146V29.1956L31.0857 29.9428C31.1492 29.9709 31.2169 29.9849 31.2846 29.9849C31.3773 29.9849 31.47 29.9587 31.5505 29.9062C31.689 29.8159 31.7725 29.6622 31.7725 29.4969V23.3037C31.7726 23.2224 31.7523 23.1423 31.7136 23.0708C31.6748 22.9993 31.6188 22.9387 31.5506 22.8944C31.4824 22.85 31.4042 22.8235 31.3231 22.8171C31.242 22.8107 31.1606 22.8247 31.0863 22.8579L29.4096 23.605V23.286C29.4096 22.7182 28.9473 22.2559 28.3789 22.2559H21.0134C20.4449 22.2559 19.9826 22.7182 19.9826 23.286V29.5146C19.9826 30.0837 20.4449 30.5466 21.0134 30.5466H28.3783C28.9467 30.5466 29.409 30.0837 29.409 29.5146ZM30.7966 24.0552V28.7455L29.409 28.127V24.6736L30.7966 24.0552ZM20.9585 29.5146V23.2866C20.9585 23.2574 20.9835 23.2324 21.0134 23.2324H28.3783C28.4081 23.2324 28.4332 23.2574 28.4332 23.2866V29.5152C28.4332 29.5451 28.4075 29.5713 28.3783 29.5713H21.0134C20.9841 29.5707 20.9585 29.5445 20.9585 29.5146ZM34.3403 18.1608C32.1915 15.959 29.1925 14.5897 25.8782 14.5897C19.3574 14.5897 14.0522 19.8887 14.0522 26.4015C14.0522 29.9086 15.5868 33.1901 18.2705 35.4431V40.8075C18.2706 40.9368 18.3221 41.0609 18.4136 41.1524C18.505 41.2438 18.6291 41.2953 18.7585 41.2954C18.8853 41.2954 19.0097 41.246 19.1037 41.1527L22.5303 37.731C23.3299 37.9664 24.1515 38.1158 24.9852 38.1781C26.0502 39.271 27.295 40.1365 28.6899 40.7507C30.1946 41.4137 31.7981 41.7498 33.4553 41.7498C34.5953 41.7498 35.72 41.5882 36.8038 41.2692L40.2304 44.6909C40.2757 44.7362 40.3295 44.7722 40.3888 44.7967C40.448 44.8211 40.5115 44.8337 40.5756 44.8336C40.705 44.8335 40.829 44.782 40.9205 44.6906C41.012 44.5991 41.0634 44.475 41.0636 44.3457V38.9813C43.746 36.7283 45.2806 33.4456 45.2806 29.9379C45.2806 23.7545 40.4902 18.617 34.3403 18.1608ZM22.0478 36.8326L19.2464 39.6303V35.2132C19.2464 35.0656 19.1799 34.9259 19.0646 34.8332C16.4993 32.7631 15.0281 29.6903 15.0281 26.4015C15.0281 20.4267 19.8954 15.5655 25.8782 15.5655C31.8603 15.5655 36.727 20.4267 36.727 26.4015C36.727 32.3758 31.8603 37.2357 25.8782 37.2357C24.7394 37.2357 23.6172 37.0601 22.5425 36.7136C22.457 36.6861 22.3657 36.6826 22.2784 36.7036C22.1912 36.7246 22.1114 36.7692 22.0478 36.8326ZM40.2676 38.3714C40.2109 38.4172 40.1652 38.4751 40.1337 38.5408C40.1023 38.6066 40.0859 38.6785 40.0858 38.7514V43.1691L37.2844 40.3714C37.221 40.3078 37.1412 40.2631 37.0539 40.2421C36.9666 40.2211 36.8752 40.2247 36.7898 40.2524C35.7151 40.5989 34.5928 40.7745 33.4541 40.7745C30.8399 40.7745 28.3874 39.8676 26.432 38.1988C32.6959 37.9085 37.7022 32.7283 37.7022 26.4022C37.7022 23.7197 36.802 21.244 35.2881 19.2587C40.4311 20.1327 44.3047 24.612 44.3047 29.9379C44.3047 33.2279 42.8336 36.3013 40.2676 38.3714Z" fill="#A0A3AA"/>
<path opacity="0.6" d="M29.41 28.1278L30.7976 28.7463V24.0553L29.41 24.6738V28.1278ZM28.3793 23.2325H21.0144C20.9845 23.2325 20.9595 23.2576 20.9595 23.2868V29.5154C20.9595 29.5453 20.9851 29.5715 21.0144 29.5715H28.3793C28.4085 29.5715 28.4342 29.5453 28.4342 29.5154V23.2868C28.4342 23.2576 28.4091 23.2325 28.3793 23.2325ZM26.4208 26.8244L24.2299 28.087C24.1543 28.1303 24.0707 28.1522 23.9866 28.1522C23.9024 28.1522 23.8176 28.1303 23.7426 28.087C23.5919 27.9997 23.4986 27.8387 23.4986 27.6643V25.138C23.4986 24.9635 23.5919 24.8025 23.7426 24.7153C23.8167 24.6724 23.9009 24.6499 23.9866 24.6499C24.0722 24.6499 24.1564 24.6724 24.2305 24.7153L26.4208 25.9791C26.572 26.0663 26.6647 26.2273 26.6647 26.4017C26.6647 26.5762 26.5714 26.7372 26.4208 26.8244Z" fill="url(#paint1_linear_698_1970)"/>
<path d="M24.23 24.7151L26.4202 25.9789C26.5709 26.0661 26.6642 26.2271 26.6642 26.4015C26.6642 26.576 26.5715 26.737 26.4202 26.8242L24.2294 28.0868C24.1543 28.1301 24.0702 28.152 23.986 28.152C23.9219 28.1521 23.8584 28.1395 23.7992 28.115C23.74 28.0905 23.6861 28.0546 23.6408 28.0093C23.5955 27.9639 23.5596 27.9101 23.5351 27.8509C23.5106 27.7917 23.498 27.7282 23.498 27.6641V25.1378C23.498 24.9633 23.5914 24.8023 23.742 24.7151C23.8162 24.6722 23.9003 24.6497 23.986 24.6497C24.0716 24.6497 24.1558 24.6722 24.23 24.7151Z" fill="white"/>
<path opacity="0.6" d="M24.1997 27.0757L25.3699 26.386L24.1997 25.7104V27.0757Z" fill="url(#paint2_linear_698_1970)"/>
</g>
<defs>
<linearGradient id="paint0_linear_698_1970" x1="0.38913" y1="59.3574" x2="53.4606" y2="-3.80194" gradientUnits="userSpaceOnUse">
<stop stop-color="#FF6400"/>
<stop offset="1" stop-color="#FFC7A4"/>
</linearGradient>
<linearGradient id="paint1_linear_698_1970" x1="20.9594" y1="29.5715" x2="25.8436" y2="20.5504" gradientUnits="userSpaceOnUse">
<stop stop-color="#FF6400"/>
<stop offset="1" stop-color="#FFC7A4"/>
</linearGradient>
<linearGradient id="paint2_linear_698_1970" x1="24.1997" y1="27.0757" x2="25.4558" y2="25.7946" gradientUnits="userSpaceOnUse">
<stop stop-color="#FF6400"/>
<stop offset="1" stop-color="#FFC7A4"/>
</linearGradient>
<clipPath id="clip0_698_1970">
<rect width="31.2284" height="31.2284" fill="white" transform="translate(14.0522 14.098)"/>
</clipPath>
</defs>
</svg>
