<svg width="24" height="24" viewBox="0 0 24 24" fill="none" xmlns="http://www.w3.org/2000/svg">
<path d="M12.75 15.75V15H10.875C10.2548 15 9.75 14.4952 9.75 13.875V12.375C9.75 11.7548 10.2548 11.25 10.875 11.25H11.25V10.5H12.75V11.25H13.5C13.6989 11.25 13.8897 11.329 14.0303 11.4697C14.171 11.6103 14.25 11.8011 14.25 12C14.25 12.1989 14.171 12.3897 14.0303 12.5303C13.8897 12.671 13.6989 12.75 13.5 12.75H11.25V13.5H13.125C13.7452 13.5 14.25 14.0048 14.25 14.625V16.125C14.25 16.7453 13.7452 17.25 13.125 17.25H12.75V18H11.25V17.25H10.5C10.3011 17.25 10.1103 17.171 9.96967 17.0303C9.82902 16.8897 9.75 16.6989 9.75 16.5C9.75 16.3011 9.82902 16.1103 9.96967 15.9697C10.1103 15.829 10.3011 15.75 10.5 15.75H12.75Z" fill="white"/>
<path d="M21.9692 10.6447L13.8152 2.96925C13.3235 2.50736 12.6743 2.25024 11.9998 2.25024C11.3252 2.25024 10.676 2.50736 10.1844 2.96925L8.25016 4.791V3C8.25016 2.80109 8.17115 2.61032 8.03049 2.46967C7.88984 2.32902 7.69908 2.25 7.50016 2.25H4.50016C4.30125 2.25 4.11049 2.32902 3.96983 2.46967C3.82918 2.61032 3.75016 2.80109 3.75016 3V9.027L2.05291 10.6252C1.53766 11.0722 1.36366 11.784 1.60816 12.4387C1.84891 13.0837 2.43841 13.5 3.10966 13.5H3.75016V21C3.75016 21.1989 3.82918 21.3897 3.96983 21.5303C4.11049 21.671 4.30125 21.75 4.50016 21.75H19.5002C19.6991 21.75 19.8898 21.671 20.0305 21.5303C20.1711 21.3897 20.2502 21.1989 20.2502 21V13.5H20.8892C21.5612 13.5 22.1514 13.083 22.3922 12.438C22.6359 11.7832 22.4612 11.0715 21.9692 10.6447ZM5.25016 3.75H6.75016V6.2025L5.25016 7.61475V3.75ZM20.9867 11.9137C20.9544 12 20.9049 12 20.8892 12H19.5002C19.3013 12 19.1105 12.079 18.9698 12.2197C18.8292 12.3603 18.7502 12.5511 18.7502 12.75V20.25H5.25016V12.75C5.25016 12.5511 5.17115 12.3603 5.03049 12.2197C4.88984 12.079 4.69908 12 4.50016 12H3.10966C3.09391 12 3.04516 12 3.01291 11.9137C3.00041 11.8834 2.9981 11.8498 3.00636 11.818C3.01461 11.7862 3.03297 11.7579 3.05866 11.7375L11.2127 4.062C11.4258 3.86178 11.7073 3.75032 11.9998 3.75032C12.2923 3.75032 12.5737 3.86178 12.7869 4.062L20.9627 11.7577C21.0189 11.8057 20.9979 11.883 20.9867 11.9137Z" fill="white"/>
</svg>
