<svg width="127" height="41" viewBox="0 0 127 41" fill="none" xmlns="http://www.w3.org/2000/svg">
<path d="M118.104 36.1966C118.104 37.1115 117.195 37.5681 115.378 37.5681C113.745 37.5681 112.927 37.1299 112.927 36.2511V4.90217C112.927 4.02399 113.745 3.58491 115.378 3.58491C117.195 3.58491 118.104 4.02399 118.104 4.90217V36.1966ZM115.45 0.784115C108.104 0.784115 104.434 2.30377 104.434 5.34171V36.031C104.434 39.0696 108.104 40.5876 115.45 40.5876C122.882 40.5876 126.598 39.0696 126.598 36.031V5.34171C126.598 2.30377 122.882 0.784115 115.45 0.784115Z" fill="#FF6400"/>
<path d="M98.0588 6.09885C95.4835 6.09589 94.9187 7.32433 94.9187 8.83626V15.6899H92.9233V3.93635C92.9233 1.99283 91.9168 0.416618 88.8859 0.416618C85.7122 0.416618 84.8522 1.99283 84.8522 3.93635V11.749H82.6305V6.7008C82.6305 5.18864 82.121 3.83913 79.4894 3.96338C77.2107 3.92408 76.3496 5.18864 76.3496 6.7008V14.4865C76.3496 15.9986 77.0843 17.2234 78.8191 17.2234H79.4894H84.8522V40.5881H92.9233V21.1641H98.0588C99.7937 21.1641 101.2 19.9388 101.2 18.4273V8.83626C101.2 7.32433 100.613 6.10135 98.0588 6.09885Z" fill="white"/>
<path d="M61.8963 0.894325C54.5521 0.894325 50.8809 2.41352 50.8809 5.45101V36.0312C50.8809 39.0696 54.5521 40.5881 61.8963 40.5881C69.2397 40.5881 72.9127 39.0696 72.9127 36.0312V23.5408H64.4189V36.1412C64.4189 37.0932 63.5535 37.5686 61.8282 37.5686C60.1919 37.5686 59.3754 37.0932 59.3754 36.1412V5.12186C59.3754 4.20712 60.1919 3.74986 61.8282 3.74986C63.5535 3.74986 64.4189 4.20712 64.4189 5.12186V14.7372H72.9127V5.45101C72.9127 2.41352 69.2397 0.894325 61.8963 0.894325Z" fill="#FF6400"/>
<path d="M38.9739 35.6128C38.9739 36.3076 38.0651 37.6783 36.2531 37.6783C34.4385 37.6783 33.5321 37.331 33.5321 36.6352V22.636C33.5321 22.0504 34.1354 21.5198 35.3473 21.0434C35.6907 20.9332 36.8997 20.6046 38.9739 20.0553V35.6128ZM36.1862 1.05897C29.1956 1.05897 25.7021 2.28627 25.7021 4.73816V14.6829H33.5321V4.40742C33.5321 3.71279 34.4385 3.36412 36.2531 3.36412C38.0651 3.36412 38.9739 3.71279 38.9739 4.40742V15.773C38.9739 17.0905 36.7613 18.3351 32.338 19.506C27.9116 20.6782 25.7021 21.7576 25.7021 22.7448V37.0193C25.7021 37.8975 26.3547 38.9401 27.7961 39.5995C29.2373 40.258 31.0394 40.5876 33.1999 40.5876C35.709 40.5876 37.8202 40.4786 39.2048 39.3808C39.2582 40.2983 39.1878 40.2585 39.1878 40.5876H47.2026V38.996V4.73816C47.2026 2.28627 43.5298 1.05897 36.1862 1.05897Z" fill="#FF6400"/>
<path d="M11.0164 0.894325C3.67119 0.894325 0 2.41352 0 5.45101V36.0312C0 39.0696 3.67119 40.5881 11.0164 40.5881C18.3583 40.5881 22.0311 39.0696 22.0311 36.0312V23.5408H13.5378V36.1412C13.5378 37.0932 12.6731 37.5686 10.9479 37.5686C9.31154 37.5686 8.49479 37.0932 8.49479 36.1412V5.12186C8.49479 4.20712 9.31154 3.74986 10.9479 3.74986C12.6731 3.74986 13.5378 4.20712 13.5378 5.12186V14.7372H22.0311V5.45101C22.0311 2.41352 18.3583 0.894325 11.0164 0.894325Z" fill="#FF6400"/>
</svg>
