<svg width="57" height="57" viewBox="0 0 57 57" fill="none" xmlns="http://www.w3.org/2000/svg">
<path d="M40.8299 5.37034C37.4284 1.99273 32.9248 0.137573 28.1343 0.137573C28.091 0.137573 28.0466 0.137683 28.0033 0.138011C23.3264 0.170953 18.8982 2.00335 15.5344 5.29767C12.1699 8.59265 10.2469 12.9817 10.1199 17.6561C9.98733 22.5273 11.7716 27.1408 15.1439 30.647C17.7995 33.408 19.262 37.0804 19.262 40.9878V48.5045C19.262 50.0489 20.3342 51.3467 21.773 51.6949V52.6972C21.773 54.6132 23.3317 56.1719 25.2478 56.1719H30.9935C32.9095 56.1719 34.4683 54.6132 34.4683 52.6972V51.7007C35.9196 51.3615 37.0042 50.0577 37.0042 48.5045V40.988C37.0042 37.1317 38.5068 33.4169 41.2355 30.5281C44.4067 27.1707 46.1532 22.7775 46.1532 18.1576C46.1532 13.3202 44.2627 8.77892 40.8299 5.37034ZM32.2795 52.6973C32.2795 53.4063 31.7027 53.9832 30.9936 53.9832H25.2479C24.5388 53.9832 23.9619 53.4063 23.9619 52.6973V51.7875H32.2795V52.6973ZM34.8154 48.5045C34.8154 49.1078 34.3247 49.5986 33.7213 49.5986H22.5451C21.9417 49.5986 21.451 49.1078 21.451 48.5045V42.28H34.8154V48.5045ZM26.414 40.0911V26.2481H29.8235V40.091H26.414V40.0911ZM39.6445 29.025C36.7418 32.0981 35.0547 35.998 34.8391 40.091H32.0124V26.2481H32.996C34.7454 26.2481 36.1687 24.8249 36.1687 23.0755V22.9058C36.1687 21.1564 34.7454 19.7332 32.996 19.7332C31.2467 19.7332 29.8235 21.1564 29.8235 22.9058V24.0593H26.414V22.9058C26.414 21.1564 24.9908 19.7332 23.2415 19.7332H23.0259C21.2765 19.7332 19.8533 21.1564 19.8533 22.9058V23.0755C19.8533 24.8248 21.2765 26.2481 23.0259 26.2481H24.2251V40.091H21.4284C21.2195 35.9516 19.5668 32.0877 16.7215 29.1296C13.7589 26.0495 12.1914 21.9958 12.3079 17.7157C12.5371 9.28969 19.5849 2.38629 28.0187 2.32675C32.2754 2.29687 36.2722 3.92931 39.2878 6.92355C42.3037 9.91811 43.9645 13.9078 43.9645 18.1576C43.9645 22.2164 42.4302 26.0757 39.6445 29.025ZM32.0124 24.0593V22.9058C32.0124 22.3633 32.4537 21.9221 32.996 21.9221C33.5386 21.9221 33.9798 22.3635 33.9798 22.9058V23.0755C33.9798 23.618 33.5386 24.0593 32.996 24.0593H32.0124ZM24.225 22.9058V24.0593H23.0257C22.4833 24.0593 22.0421 23.618 22.0421 23.0755V22.9058C22.0421 22.3633 22.4833 21.9221 23.0257 21.9221H23.2413C23.7837 21.9221 24.225 22.3636 24.225 22.9058Z" fill="#FF6400"/>
<path d="M39.8644 13.42C38.9243 11.086 37.3253 9.09974 35.2406 7.67589C33.1036 6.21648 30.5987 5.45476 28.003 5.47304C27.3986 5.47731 26.912 5.97078 26.9163 6.57523C26.9205 7.17706 27.4097 7.66188 28.0105 7.66188H28.0183L28.0947 7.66167C32.4045 7.66167 36.2221 10.2363 37.8342 14.2378C37.9158 14.4404 38.0561 14.6139 38.237 14.7361C38.4179 14.8583 38.6313 14.9236 38.8496 14.9236C38.9897 14.9236 39.1284 14.8966 39.2583 14.844C39.8189 14.6181 40.0904 13.9805 39.8644 13.42ZM40.459 17.3835C40.2554 17.18 39.9731 17.0629 39.6852 17.0629C39.3974 17.0629 39.115 17.18 38.9115 17.3835C38.7065 17.589 38.5913 17.8671 38.5908 18.1573C38.5908 18.4462 38.7068 18.7275 38.9115 18.9311C39.115 19.1357 39.3963 19.2517 39.6852 19.2517C39.9731 19.2517 40.2554 19.1357 40.459 18.9311C40.6636 18.7254 40.7788 18.4474 40.7796 18.1573C40.7796 17.8695 40.6625 17.5871 40.459 17.3835ZM50.9315 5.58872C50.504 5.16135 49.8113 5.16135 49.3837 5.58872L47.3447 7.62774C46.9173 8.05511 46.9173 8.7481 47.3447 9.17558C47.5584 9.38932 47.8385 9.49614 48.1186 9.49614C48.3988 9.49614 48.6788 9.38932 48.8925 9.17558L50.9315 7.13656C51.3589 6.70919 51.3589 6.0162 50.9315 5.58872ZM50.9314 29.1789L48.8925 27.1399C48.4651 26.7125 47.7724 26.7125 47.3447 27.1399C46.9173 27.5673 46.9173 28.2602 47.3447 28.6876L49.3837 30.7266C49.5974 30.9404 49.8775 31.0472 50.1575 31.0472C50.4376 31.0472 50.7177 30.9403 50.9314 30.7266C51.3588 30.2993 51.3588 29.6063 50.9314 29.1789ZM55.0433 17.0633H52.1596C51.5552 17.0633 51.0651 17.5533 51.0651 18.1577C51.0651 18.7622 51.5552 19.2522 52.1596 19.2522H55.0433C55.6476 19.2522 56.1377 18.7622 56.1377 18.1577C56.1377 17.5533 55.6476 17.0633 55.0433 17.0633ZM8.89614 7.62785L6.85723 5.58883C6.42974 5.16146 5.73697 5.16146 5.30938 5.58883C4.88201 6.0162 4.88201 6.70919 5.30938 7.13667L7.3484 9.17569C7.44991 9.27747 7.57054 9.35819 7.70334 9.4132C7.83615 9.46821 7.97852 9.49644 8.12227 9.49625C8.26602 9.49644 8.40839 9.46821 8.54119 9.4132C8.674 9.35819 8.79463 9.27747 8.89614 9.17569C9.32351 8.74821 9.32351 8.05533 8.89614 7.62785ZM8.89614 27.1398C8.46876 26.7123 7.77588 26.7123 7.3484 27.1398L5.30938 29.1789C4.88201 29.6063 4.88201 30.2993 5.30938 30.7266C5.41089 30.8284 5.53152 30.9091 5.66432 30.9642C5.79713 31.0192 5.9395 31.0474 6.08325 31.0472C6.227 31.0474 6.36936 31.0191 6.50216 30.9641C6.63496 30.9091 6.75559 30.8284 6.85712 30.7266L8.89614 28.6876C9.32351 28.2601 9.32351 27.5673 8.89614 27.1398ZM4.08133 17.0633H1.19763C0.593293 17.0633 0.10321 17.5533 0.10321 18.1577C0.10321 18.7622 0.593293 19.2522 1.19763 19.2522H4.08133C4.68567 19.2522 5.17575 18.7622 5.17575 18.1577C5.17575 17.5533 4.68567 17.0633 4.08133 17.0633Z" fill="#FF6400"/>
</svg>
