<svg width="44" height="55" viewBox="0 0 44 55" fill="none" xmlns="http://www.w3.org/2000/svg">
<path d="M37.0903 36.3949C40.8714 32.5434 43.2076 27.2688 43.2076 21.4578C43.2075 9.69363 33.6365 0.122681 21.8722 0.122681C10.1079 0.122681 0.53698 9.69363 0.53698 21.4579C0.53698 27.2688 2.87314 32.5434 6.65426 36.395L0.95308 46.2697C0.879384 46.3974 0.844093 46.5436 0.851441 46.6909C0.858788 46.8381 0.908463 46.9801 0.994504 47.0998C1.08054 47.2195 1.1993 47.3118 1.33652 47.3657C1.47373 47.4196 1.62359 47.4328 1.7681 47.4036L9.44099 45.8548L11.9364 53.2742C11.9834 53.414 12.0697 53.5372 12.185 53.6291C12.3003 53.721 12.4396 53.7777 12.5863 53.7923C12.733 53.807 12.8809 53.779 13.0121 53.7118C13.1433 53.6445 13.2523 53.5408 13.326 53.4131L19.5318 42.6641C20.3006 42.7484 21.0813 42.793 21.8722 42.793C22.6632 42.793 23.4437 42.7484 24.2125 42.6641L30.6441 53.8041C30.7179 53.9318 30.8268 54.0355 30.958 54.1028C31.0892 54.1701 31.2371 54.198 31.3838 54.1834C31.5305 54.1687 31.6698 54.112 31.7851 54.0201C31.9004 53.9282 31.9867 53.805 32.0337 53.6653L34.529 46.2458L42.202 47.7946C42.3465 47.8237 42.4964 47.8106 42.6336 47.7567C42.7708 47.7028 42.8896 47.6104 42.9756 47.4907C43.0616 47.371 43.1113 47.229 43.1187 47.0818C43.126 46.9345 43.0907 46.7883 43.017 46.6606L37.0903 36.3949ZM12.8476 51.1773L10.6779 44.726C10.6183 44.5492 10.4963 44.4002 10.3347 44.3069C10.1732 44.2136 9.98309 44.1825 9.80018 44.2193L3.12857 45.566L7.79815 37.4782C10.611 39.9524 14.078 41.6987 17.9027 42.4214L12.8476 51.1773ZM2.06917 21.4579C2.06917 10.5384 10.9528 1.65487 21.8722 1.65487C32.7916 1.65487 41.6753 10.5384 41.6753 21.4579C41.6753 32.3774 32.7916 41.261 21.8722 41.261C10.9528 41.261 2.06917 32.3773 2.06917 21.4579ZM34.1698 44.6103C33.9869 44.5735 33.7968 44.6046 33.6352 44.6979C33.4736 44.7912 33.3516 44.9402 33.2921 45.1171L31.1225 51.5682L25.8415 42.4213C29.6663 41.6986 33.1334 39.9523 35.9463 37.4781L40.8416 45.9569L34.1698 44.6103ZM21.8722 5.61001C13.1337 5.61001 6.02431 12.7193 6.02431 21.4579C6.02431 30.1966 13.1337 37.3057 21.8722 37.3057C30.6108 37.3057 37.7201 30.1965 37.7201 21.4578C37.7201 12.7192 30.6108 5.61001 21.8722 5.61001ZM21.8722 35.7735C13.9785 35.7735 7.5565 29.3516 7.5565 21.4578C7.5565 13.5641 13.9785 7.1422 21.8722 7.1422C29.766 7.1422 36.1879 13.5642 36.1879 21.4579C36.1879 29.3517 29.766 35.7735 21.8722 35.7735ZM32.177 19.0712C32.1294 18.9249 32.039 18.7964 31.9174 18.7022C31.7958 18.6081 31.6487 18.5527 31.4952 18.5433L24.9775 18.1452L22.5851 12.0696C22.5287 11.9265 22.4306 11.8037 22.3034 11.7172C22.1763 11.6307 22.026 11.5844 21.8722 11.5844C21.7184 11.5844 21.5682 11.6307 21.441 11.7172C21.3139 11.8037 21.2157 11.9265 21.1593 12.0696L18.7669 18.1452L12.2493 18.5433C12.0958 18.5526 11.9486 18.608 11.827 18.7022C11.7054 18.7963 11.6149 18.9249 11.5674 19.0712C11.5199 19.2175 11.5175 19.3747 11.5605 19.5224C11.6036 19.67 11.6901 19.8013 11.8088 19.8991L16.8476 24.052L15.2122 30.3735C15.1737 30.5224 15.1809 30.6795 15.2328 30.8242C15.2848 30.969 15.3791 31.0948 15.5036 31.1852C15.628 31.2756 15.7767 31.3265 15.9305 31.3312C16.0842 31.3358 16.2358 31.2942 16.3655 31.2115L21.8722 27.7025L27.3789 31.2114C27.5086 31.2942 27.6602 31.336 27.814 31.3313C27.9677 31.3266 28.1165 31.2757 28.2409 31.1852C28.3653 31.0948 28.4597 30.969 28.5117 30.8242C28.5636 30.6794 28.5708 30.5223 28.5322 30.3734L26.8968 24.0519L31.9357 19.899C32.0544 19.8012 32.1409 19.67 32.1839 19.5223C32.227 19.3747 32.2246 19.2175 32.177 19.0712ZM25.5455 23.1801C25.433 23.2729 25.3492 23.3958 25.3042 23.5345C25.2591 23.6733 25.2546 23.822 25.2911 23.9632L26.5616 28.874L22.2839 26.1481C22.161 26.0696 22.0181 26.0279 21.8722 26.0279C21.7263 26.0279 21.5835 26.0696 21.4605 26.1481L17.1827 28.874L18.4532 23.9632C18.4897 23.822 18.4852 23.6733 18.4401 23.5346C18.395 23.3958 18.3113 23.2729 18.1988 23.1801L14.2844 19.954L19.3475 19.6448C19.4931 19.6359 19.6331 19.5856 19.7511 19.4999C19.8691 19.4142 19.9602 19.2966 20.0137 19.1608L21.8722 14.4412L23.7307 19.1609C23.7841 19.2967 23.8752 19.4143 23.9932 19.5C24.1112 19.5858 24.2512 19.636 24.3968 19.6449L29.46 19.9541L25.5455 23.1801Z" fill="#FF6400"/>
</svg>
