<svg width="36" height="75" viewBox="0 0 36 75" fill="none" xmlns="http://www.w3.org/2000/svg">
<path d="M7.09466 72.0679C6.98661 72.596 7.32706 73.1116 7.85509 73.2196L16.4597 74.9805C16.9878 75.0885 17.5034 74.7481 17.6115 74.22C17.7195 73.692 17.3791 73.1764 16.851 73.0683L9.20246 71.5031L10.7676 63.8546C10.8757 63.3265 10.5352 62.8109 10.0072 62.7028C9.47917 62.5948 8.96353 62.9352 8.85547 63.4633L7.09466 72.0679ZM19.6253 26.0264L19.2916 26.9435L19.6253 26.0264ZM8.95157 36.8746L8.69128 37.8151L8.95157 36.8746ZM15.408 0.603993L14.4341 0.666804L14.5597 2.61453L15.5336 2.55172L15.408 0.603993ZM8.58844 73.078C16.8282 67.6376 26.2931 58.2846 30.4582 49.0132C32.5442 44.3697 33.3583 39.614 31.8516 35.3524C30.334 31.0596 26.5486 27.5075 19.9591 25.1094L19.2916 26.9435C25.5305 29.214 28.7488 32.4315 30.0115 36.003C31.2852 39.6056 30.6563 43.8091 28.6778 48.2133C24.7137 57.0374 15.5628 66.1343 7.51303 71.4492L8.58844 73.078ZM19.9591 25.1094C15.4163 23.4562 11.4601 23.0433 8.29899 23.466C5.15435 23.8866 2.72367 25.149 1.37502 26.9223C-0.0114512 28.7453 -0.171755 31.0192 1.1161 33.0789C2.36497 35.0762 4.89963 36.7657 8.69128 37.8151L9.21187 35.934C5.67098 34.9541 3.66117 33.4678 2.77099 32.0441C1.9198 30.6828 2.02586 29.2907 2.92854 28.1038C3.86903 26.8672 5.75028 25.776 8.55771 25.4006C11.3486 25.0273 14.9847 25.3761 19.2916 26.9435L19.9591 25.1094ZM8.69128 37.8151C15.9702 39.8295 24.2182 36.291 29.4903 30.9371C34.7475 25.5984 37.4615 17.9627 32.7134 11.7502L31.1626 12.9354C35.0292 17.9944 33.0762 24.5138 28.0996 29.5676C23.138 34.6063 15.5854 37.6979 9.21187 35.934L8.69128 37.8151ZM32.7134 11.7502C28.3109 5.99006 24.0612 3.18763 20.8532 1.83439C19.2525 1.1592 17.9217 0.849288 16.975 0.709429C16.5019 0.639547 16.1253 0.612205 15.8594 0.602833C15.7265 0.598139 15.6212 0.597941 15.5454 0.599158C15.5075 0.599768 15.4769 0.600735 15.454 0.60167C15.4425 0.602135 15.4329 0.602596 15.4252 0.602994C15.4214 0.6032 15.418 0.603389 15.4151 0.603558C15.4137 0.603643 15.4124 0.603719 15.4112 0.603794C15.4106 0.603828 15.4098 0.603878 15.4095 0.603902C15.4087 0.603944 15.408 0.603993 15.4708 1.57786C15.5336 2.55172 15.5329 2.55177 15.5323 2.55181C15.5321 2.55182 15.5315 2.55186 15.5311 2.55188C15.5304 2.55192 15.5298 2.55196 15.5293 2.55199C15.5283 2.55205 15.5278 2.55207 15.5278 2.55207C15.5278 2.55208 15.5296 2.55198 15.5332 2.55183C15.5405 2.55153 15.555 2.55103 15.5767 2.55068C15.6202 2.54998 15.692 2.54992 15.7906 2.55339C15.9878 2.56035 16.292 2.5815 16.6897 2.64025C17.4846 2.75767 18.6553 3.02561 20.0946 3.63273C22.9664 4.84412 26.9504 7.42419 31.1626 12.9354L32.7134 11.7502Z" fill="#171717"/>
</svg>
